<svg width="588" height="330" viewBox="0 0 588 330" fill="none" xmlns="http://www.w3.org/2000/svg">
<g clip-path="url(#clip0_464_1790)">
<path d="M162 208L161.39 204.39C161.02 202.19 160.24 200.83 158 201C156.06 199.48 154.6 199.03 153.5 199.01C152.4 198.99 148.91 196.95 145.75 194.49L140 190L135 184V183L133.25 181.78C132.29 181.1 130.94 180.88 129 182L125.32 183.98C121.25 186.18 120.81 186.15 122 182L123 180L123.75 179.55C124.87 178.87 125.28 174 124.21 174C123.7 174 123.22 172.43 123 167L123.25 161.75C123.5 156.42 119.48 153.39 116 158L113.75 160.75C112.25 162.58 111.58 164.58 112 170V171.21C112 174.07 109.28 175.36 106.07 174.03C102.54 172.57 101.83 168.12 106 162L108.14 160.17C109.32 159.17 110.04 157.71 109.74 156.92C109.29 155.74 108.85 155.8 105 159L95.9999 161V162L93.9999 164L93.2499 165.15C89.2199 171.31 86.2799 172.54 87.9999 165C89.3699 162.29 92.5199 156.44 95.8799 150.25L102 139L109.25 127.08C116.11 115.79 117.25 111.97 111 116L105.26 119.89C102.11 122.03 99.4099 124.28 98.9999 126C97.4499 127.94 96.0999 128.84 94.9999 129.25L92.9999 130L92.2499 128.94C89.2799 124.72 88.5299 122.08 90.9999 118C104.56 110.01 110.3 106.91 112.5 105.95C114.7 105 118.19 103.04 120.25 101.61L124 99L129 89L129.72 88C131.14 86.04 123.4 86.94 119 91L115 92L110.25 94.07C107.64 95.21 104.04 96.89 102.24 97.82C99.1799 99.4 98.8399 99.4 93.9999 96C93.5799 93.08 95.0799 91.58 98.2499 89.75L103 87L106.93 85.75C109.1 85.06 112.02 83.71 116 81L122 77L127 74L139 65L144 59L144.75 57.8C145.32 56.89 144.22 56.77 135 58H134C131.29 59.27 130.16 60.4 129.75 61.32L129 63H126L123.75 60.66C122.51 59.38 121.16 56.68 120 51L125 49L138 48L142.75 48.75C145.36 49.16 148.51 50.06 152 52C153.95 55.66 153.95 56.84 153.12 58.61L152 61L141 73C136.19 75.69 135.81 76.31 136.75 77.04L138 78V88L135.73 92C133.37 96.15 133.48 96.69 138 94L140.25 94.35C141.49 94.54 143.53 95.78 144.79 97.1C146.75 99.16 147.36 99.32 151 97L154 96L156.76 96.25C158.28 96.39 160.3 97.06 163 99L163.63 100.75C165.39 105.62 166.36 162.01 164.68 162C162.05 161.99 161 154.25 160.98 134.65C160.95 107.03 159.19 100.28 151 105L146 110L141 117L138.96 121.75C137.83 124.36 136.48 128.41 135 135V137L134 139L131 149L130 155L129.26 160.63C128.09 169.57 130.02 175 133 167L135 164L144 146V143V137L140 134V131.79C140 129.17 142.19 127.7 147 129L149 130L150.18 134.25C151.09 137.52 151.09 139.71 149 149L148 151L142.25 160.56C134.92 172.73 134.95 172.52 145 184H147L150 190L151.75 192.25C152.71 193.49 154.74 194.84 159 196L161.44 196.25C165.89 196.71 167.87 191.48 166 179L165.34 175.91C164.71 172.9 166.3 170.45 168.15 171.59C168.56 171.85 169.15 171.59 170 170L172 162L173 157L173.75 156.04C175.45 153.86 179.01 133.6 179.03 126C179.04 122.98 179.48 119.94 181 118L182.7 117.75C185.45 117.35 187 121.63 185 131L184 136L182 145L180 151L179 156L178 162L175.25 172.59C173.74 178.41 172.61 184.71 173 190L171 193L169.41 196.25C168.53 198.04 167.86 200.06 168 202L167 208H165H162ZM131 124L135 110L135.39 107.85C135.68 106.28 135.41 105.87 133 107L127 109L125 110L121.75 114.25C119.96 116.59 118.16 119.51 117 123L116 125L107 140L104 146L105 148L110.25 148.25C113.43 148.4 115.99 148.01 118 146L121 145L121.25 147.75C122.1 157.06 125.18 152.61 131 124Z" fill="#221212"/>
<path d="M214 181L213 175L222 168L222.7 165.53C223.61 162.28 222.32 161.2 217 164L213.09 166C210.94 167.1 208.24 168 205 168L202.76 168.75C201.53 169.16 200.41 170.06 200 172L196 173L195.82 168.43C195.69 165.22 196.14 163.44 199 161L203 162L211 160L224 154L226 138L227.17 129.75C227.82 125.21 228.27 120.49 228 117L229 109L231 97L232 95L239 97L238 101L235 111V115L234 121V122L232.75 125.4C232.06 127.27 231.61 130.19 232 135L231 137L229 148V149L228.3 151C227.74 152.6 228.03 153 229.76 153C230.96 153 233.07 152.1 237 149L241 150V155L239 160L233 166L230.25 168.13C227.5 170.26 227.5 170.26 229.99 170.73C231.36 170.99 232.6 170.71 233 169L241 163L244 160C249.64 160 245.47 167.49 239.6 170.58L235 173L226 178L224.25 179.69C223.08 180.82 221.09 181.32 214 181ZM229.87 158.06C227.19 159.17 225 162.32 225 165.07C225 165.58 225.56 166.01 226.25 166.03C226.94 166.04 229.18 164.13 231.24 161.78C235.23 157.22 234.79 156.02 229.87 158.06Z" fill="#221212"/>
<path d="M114 266V264H122L124 263L131.25 257.75C135.24 254.86 138.61 251.94 139 250L140.16 248.49C142.06 246.01 139.6 239.59 133 236L131 235L129.33 234.07C120.8 229.34 120.8 229.35 118 215L122 212C127.04 212.86 129.74 213.76 131.25 214.55L134 216L133.75 221.1C133.51 226.09 133.62 226.32 144 236C149.34 242.87 149.43 243.31 148.25 247.04L147 251L145.61 252.75C141.25 258.25 134.79 263.76 123 270H122L114 266Z" fill="#221212"/>
<path d="M253 119L254 113L258.25 113.64C260.59 113.99 262.84 114.21 264 114C267.36 114.53 269.91 110.56 269.96 107.42C269.98 106.27 270.34 105 270.75 104.59C271.16 104.18 271.61 102.98 271.75 101.92L272 100L278 83V82L280 77L281 70V69L281.78 64.75C282.21 62.41 282.88 59.94 284 58H288L289.08 60.25C289.68 61.49 290.13 63.06 290 65L289 68L285 78L284 81L282 86L281 90L280 92L277 101L275 106L273.83 108.19C272.54 110.63 274.52 112.29 277 109L280 105L285 101L294 91H300C301.78 93.33 301.24 95.23 299.03 99.35L296 105L295 106L294.29 103.25C293.39 99.76 293.15 99.45 291 101L283 109L280.5 111.89C279.13 113.47 278 115.24 278 115.82C278 116.4 277.1 117.35 274 119L269 120L257 121L253 119Z" fill="#221212"/>
<path d="M45 246L51 233C54.79 225.64 56.41 222.6 57.03 221.5C57.65 220.4 59.7 216.24 61.58 212.25L65 205L64.37 209.04C63.68 213.52 63.75 213.72 68 214L65 220L61.95 225.25C56.15 235.24 57.63 238.22 69 229L73.64 225.5C76.2 223.57 80.47 220.65 83.14 219.01C85.81 217.36 88 215.56 88 214L96 206C101.81 201.75 105.39 198.49 107.7 196.01C114.23 188.99 116.53 186.68 119.37 184.25L122 182C120.81 186.15 121.25 186.18 125.32 183.98L129 182V183L104 207L83 224L63 239L56 242V239C56 233.93 52.09 234.93 45 246Z" fill="#221212"/>
<path d="M273 152L273.25 144.6C273.39 140.53 274.06 134.45 276 125L280 121L282 120L283.71 118.78C285.06 117.82 285.49 117.82 286 120L284 122L279 131L278 135V136L277.75 138.75C277.61 140.26 277.11 141.79 276.63 142.13C275.37 143.05 277.27 148.09 278.54 147.22C279.12 146.82 279.9 145.49 281 142L283 140L290 127L291 124L295 123L297.75 122.81C299.26 122.71 301.29 122.93 304 124L306 127L305 135V136L303.75 136.95C302.8 137.67 302.38 136.76 302 133.2C301.53 128.78 301.34 128.51 296 129L292 135L291 141L290 143L287 148L286 150L282.75 152.05C280.96 153.18 278.49 154.08 275 154L273 152Z" fill="#221212"/>
<path d="M247 228C251.26 225.8 253.62 224.78 254.98 224.33C257.51 223.48 259.74 213.33 259.94 201.75L260 198L261.36 200.42C262.88 203.13 263.98 194.31 264 172H265V203L264.53 205.75C263.07 214.25 260.81 225.67 260.35 226.75C260.02 227.55 260.72 228 262.3 228C264.87 228 267 222.82 267 214L267.75 211.75C268.16 210.51 268.38 209.16 268 208L270 192L270.42 189.75C270.64 188.51 271.32 186.49 273 183L277 164V169.25C277 172.14 277.45 174.61 279 175C274.25 196.39 272.33 206.46 271.45 212.75L271 216L269 226L268.75 227.75C268.61 228.71 269.06 230.29 271 233L268.75 231.82C267.51 231.17 264.81 230.24 262.75 229.76C260.01 229.12 259 228.36 259 226.94C259 225.87 258.86 225 258.69 225C258.51 225 255.81 225.68 247 228Z" fill="#221212"/>
<path d="M26 263L24 264H21L22.92 262.16C24.8 260.35 24.76 260.29 17 258L27 256L28.25 256.25C28.94 256.39 30.74 255.71 35 253L45 246L44.56 247.53C44.32 248.37 42.86 249.75 41.31 250.6C38.75 252.01 38.67 252.21 40.41 252.89C42.24 253.61 42.2 253.88 39.59 259.41C35.66 267.71 37.81 271.93 44 260L36 284L34.77 286.75C33.22 290.22 32.1 299.42 34 300H35L32.75 300.25C30.79 300.47 30.53 300.09 30.75 297.28C30.93 294.9 30.47 293.78 28.93 292.96C26.95 291.9 26.83 292.14 26 304L25.75 297.25C25.52 291.06 26.03 289.1 38.5 256.5L26 263Z" fill="#221212"/>
<path d="M282 244L275.75 241.89C272.31 240.73 268.75 240.09 267.83 240.47C266.91 240.85 265.89 240.67 265 239L264.25 237.27C262.75 233.81 255.36 232.25 250 237H246L245 235L247 228C255.81 225.68 258.51 225 258.69 225C258.86 225 259 225.87 259 226.94C259 228.36 260.01 229.12 262.75 229.76C264.81 230.24 267.51 231.17 268.75 231.82L271 233L273 234L291 242L294.25 244.25C297.5 246.5 297.5 246.5 293.38 246.8C291.11 246.97 287.63 246.4 282 244Z" fill="#221212"/>
<path d="M217 253C215.45 249.51 215.22 247.26 215.5 245.75L216 243L217 231V230L218 219V214L220 185C219.57 183.84 218.22 182.94 216.72 182.25L214 181C221.09 181.32 223.08 180.82 224.25 179.69L226 178L224 185L223 203L222 218L221 240V246V253H217Z" fill="#221212"/>
<path d="M160 153L159 131V129L159.25 121.25C159.39 116.99 159.13 112.93 158.68 112.23C158.23 111.54 157.94 109.96 158.04 108.73C158.42 104.1 158.16 103.79 151 105C159.19 100.28 160.95 107.03 160.98 134.65C161 154.25 162.05 161.99 164.68 162C166.36 162.01 165.39 105.62 163.63 100.75L163 99H164L166 106L167 125V129L167.25 149.21C167.44 164.38 167.81 169.48 170 170C169.15 171.59 168.56 171.85 168.15 171.59C166.3 170.45 164.71 172.9 165.34 175.91L166 179C163.5 176.44 163.01 174.73 163.27 173.38C163.52 172.08 163.18 170.56 162.51 170.01C161.85 169.46 161.38 167.55 161.46 165.76C161.55 163.96 161.25 160.36 160.81 157.75L160 153Z" fill="#221212"/>
<path d="M71 206L70.25 204.47C69.84 203.62 68.94 202.95 67 203C72.81 190.43 77.54 181.88 81.25 175.89L88 165C86.28 172.54 89.22 171.31 93.25 165.15L94 164C91.29 171.13 88.81 176.08 86.75 179.6L83 186H82L82.51 183.29C83.32 179.04 82.55 178.35 80.11 181.16C77.62 184.02 77.31 190.81 81 188V189C78.24 194.81 75.99 198.64 74.22 201.25L71 206Z" fill="#221212"/>
<path d="M302 251C297.35 249.9 296 249.23 296 248.79C296 248.36 294.54 248.03 292.75 248.06C290.96 248.09 288.04 247.64 286.25 247.06L283 246L282 244C287.63 246.4 291.11 246.97 293.38 246.8C297.5 246.5 297.5 246.5 294.25 244.25L291 242C296.04 242.74 299.08 243.48 301 244.12C302.92 244.76 308.21 245.89 312.75 246.64L321 248L332 249L334 248H339L335.75 248.95C333.96 249.47 330.15 250.26 327.28 250.7C323.32 251.31 322.29 251.8 324 254L318.51 253.75C315.49 253.61 312.22 253.02 311.26 252.44C310.29 251.85 307.81 251.29 302 251Z" fill="#221212"/>
<path d="M324 254C322.29 251.8 323.32 251.31 327.28 250.7C330.15 250.26 333.96 249.47 335.75 248.95L339 248L340.25 245.93C340.94 244.8 341.39 243 341 240L340.53 237.75C340.26 236.51 340.15 234.63 340.28 233.56C340.95 227.76 347 242.01 347 252L346 253L343 254H339H325H324Z" fill="#221212"/>
<path d="M45 246C52.09 234.93 56 233.93 56 239V242L54.72 243.25C54.02 243.94 52.89 244.84 51 246L46 255L44 260C37.81 271.93 35.66 267.71 39.59 259.41C42.2 253.88 42.24 253.61 40.41 252.89C38.67 252.21 38.75 252.01 41.31 250.6C42.86 249.75 44.32 248.37 44.56 247.53L45 246Z" fill="#221212"/>
<path d="M260 198V185L259.45 178.75C259.14 175.31 258.69 169.91 258 161C258.71 159.84 260.06 159.39 261.46 159.25L264 159V172C263.98 194.31 262.88 203.13 261.36 200.42L260 198Z" fill="#221212"/>
<path d="M279 162V160L279.7 157.5C280.33 155.28 280.11 155 275 155V154C278.49 154.08 280.96 153.18 282.75 152.05L286 150L285.2 153.75C284.12 158.77 284.67 159.11 290 152L292.25 150.16C298.95 144.67 303.19 131.03 296 129C301.34 128.51 301.53 128.78 302 133.2C302.38 136.76 302.8 137.67 303.75 136.95L305 136C303.59 140.66 301.45 144.37 299.34 147.26C297.23 150.14 295.5 153.53 295.5 154.78C295.5 156.04 295.16 157.27 294.75 157.53L294 158L293.93 157.25C293.5 152.68 292.09 152.53 288.31 156.66C286.21 158.94 283.26 161.08 279 162Z" fill="#221212"/>
<path d="M287 228C284.29 223.96 282.94 221.03 282.25 218.89L281 215V200L282 198L282.25 204.69C282.5 211.38 282.5 211.38 285.25 205.75C286.76 202.66 288 199.42 288 197L289 201C284.95 211.98 286.17 217.38 290.75 221.25L294 224L290.75 223.65C288.96 223.46 287.48 223.35 287.44 223.4C285.56 226.68 295.46 231.09 304 228L300 231L296.75 230.75C294.96 230.61 292.04 229.94 287 228Z" fill="#221212"/>
<path d="M277 164L279 162C283.26 161.08 286.21 158.94 288.31 156.66C292.09 152.53 293.5 152.68 293.93 157.25L294 158L293 160L284 168C282.06 169.51 280.94 171.09 280.25 172.48L279 175C277.45 174.61 277 172.14 277 169.25V164Z" fill="#221212"/>
<path d="M187 196L186 193L185 175V172H186L186.25 174.67C186.75 180.04 188.54 177.7 192 161L191 172C190.88 184.22 191.31 187.82 191.93 188.25L193 189L194 190L191.25 190.79C189.45 191.31 188.41 192.35 188 196H187Z" fill="#221212"/>
<path d="M26 304C26.83 292.14 26.95 291.9 28.93 292.96C30.47 293.78 30.93 294.9 30.75 297.28C30.53 300.09 30.79 300.47 32.75 300.25L35 300L36.82 300.75C38.13 301.29 38.41 301.99 37 305L29 308L26 304Z" fill="#221212"/>
<path d="M347 252C347 242.01 340.95 227.76 340.28 233.56C340.15 234.63 340.26 236.51 340.53 237.75L341 240H340L337 230L333.75 224.77C328.76 216.75 328.31 215.69 331 215L338 223L341 228C346.01 236.65 349.3 251.31 347.83 251.75L347 252Z" fill="#221212"/>
<path d="M302 216L301 215L300 200C302.49 197.45 303.62 197 304.11 197.36L305 198V204C304.1 207.75 304.43 209.88 305.16 211.17C305.88 212.45 306.37 214.29 306.24 215.25L306 217L302 216Z" fill="#221212"/>
<path d="M186 172V170L187 155L188 154L190.25 154.97C191.86 155.66 192.43 156.65 192 161C188.54 177.7 186.75 180.04 186.25 174.67L186 172Z" fill="#221212"/>
<path d="M282 120C286.28 111.21 287.61 109.16 291.22 104.67C292.81 102.7 293.12 101.72 292.25 101.42L291 101C293.15 99.4501 293.39 99.7601 294.29 103.25L295 106L288 118L287 120H286C285.49 117.82 285.06 117.82 283.71 118.78L282 120Z" fill="#221212"/>
<path d="M294 224C303.07 224.97 304.43 225.51 304.25 226.56L304 228C295.46 231.09 285.56 226.68 287.44 223.4C287.48 223.35 288.96 223.46 290.75 223.65L294 224Z" fill="#221212"/>
<path d="M282 198L284 195L288 197C288 199.42 286.76 202.66 285.25 205.75C282.5 211.38 282.5 211.38 282.25 204.69L282 198Z" fill="#221212"/>
<path d="M65 205L67 203C68.94 202.95 69.84 203.62 70.25 204.47L71 206L68 214C63.75 213.72 63.68 213.52 64.37 209.04L65 205Z" fill="#221212"/>
<path d="M121 145C122.34 144.03 123.13 144.37 123.61 145.13C124.26 146.13 124.75 145.56 125.43 143C125.95 141.08 127.41 136.01 128.68 131.75L131 124C125.18 152.61 122.1 157.06 121.25 147.75L121 145Z" fill="#221212"/>
<path d="M15 258H17C24.76 260.29 24.8 260.35 22.92 262.16L21 264H18.42C16.32 264 15.77 263.45 15 258Z" fill="#221212"/>
<path d="M134 216C135.67 216.89 136.01 219.03 135.83 221.33C135.55 224.97 136.05 226.16 139.76 230.75L144 236C133.62 226.32 133.51 226.09 133.75 221.1L134 216Z" fill="#221212"/>
<path d="M69 229L70 227C73.07 224.29 77.12 221.36 80.98 218.75L88 214C88 215.56 85.81 217.36 83.14 219.01C80.47 220.65 76.2 223.57 73.64 225.5L69 229Z" fill="#221212"/>
<path d="M188 196C188.41 192.35 189.45 191.31 191.25 190.79L194 190L194.25 190.85C194.95 193.23 191.97 197.31 188 196Z" fill="#221212"/>
<path d="M82 186L81 188C77.31 190.81 77.62 184.02 80.11 181.16C82.55 178.35 83.3201 179.04 82.5101 183.29L82 186Z" fill="#221212"/>
<path d="M149 149C151.09 139.71 151.09 137.52 150.18 134.25L149 130C153.61 134.85 153.1 142.81 150.25 147.11L149 149Z" fill="#221212"/>
<path d="M117 217V215H118C120.8 229.35 120.8 229.34 129.33 234.07L131 235H129H128C120.96 230.7 120.28 229.58 118.75 223.71L117 217Z" fill="#221212"/>
<path d="M272 100C271.72 98.06 273.07 94.24 274.82 90.25L278 83L272 100Z" fill="#221212"/>
<path d="M300 200L301 215C299.1 213.82 297.91 201.55 298.99 200.75L300 200Z" fill="#221212"/>
<path d="M254 113C255.7 110.76 256.76 110.87 259.95 112.25L264 114C262.84 114.21 260.59 113.99 258.25 113.64L254 113Z" fill="#221212"/>
<path d="M119 91.0001C123.4 86.9401 131.14 86.0401 129.72 88.0001L129 89.0001C127.16 87.8401 125.36 88.2901 123.81 89.2501L121 91.0001H119Z" fill="#221212"/>
<path d="M138 88V78C141.02 80.46 141.09 81.24 140.13 84.33L139 88H138Z" fill="#221212"/>
<path d="M37 305C38.41 301.99 38.13 301.29 36.82 300.75L35 300H34L35 299C40.35 299 40.78 302.18 38.25 304.07L37 305Z" fill="#221212"/>
<path d="M150 190C151.94 191.34 153.96 192.69 155.75 193.86L159 196C154.74 194.84 152.71 193.49 151.75 192.25L150 190Z" fill="#221212"/>
<path d="M285 78L289 68C289.38 69.16 288.7 71.41 287.74 73.75L286 78H285Z" fill="#221212"/>
<path d="M257 122V121L269 120L261 122H257Z" fill="#221212"/>
<path d="M114 266L122 270C118.39 270.4 116.81 269.61 115.75 268.25L114 266Z" fill="#221212"/>
<path d="M247 228L245 235C244.61 230.74 245.06 229.16 245.75 228.75L247 228Z" fill="#221212"/>
<path d="M305 198C307.25 199.93 307.25 200.53 306.25 202.07L305 204V198Z" fill="#221212"/>
<path d="M168 202C167.86 200.06 168.53 198.04 169.41 196.25L171 193V194L169 202H168Z" fill="#221212"/>
<path d="M302 216L306 217C306 219.62 302.52 219.16 302.25 217.51L302 216Z" fill="#221212"/>
<path d="M232 94.9999C234.88 93.7599 236.12 94.1199 237.25 95.2499L239 96.9999L232 94.9999Z" fill="#221212"/>
<path d="M290 65C290.13 63.06 289.68 61.49 289.08 60.25L288 58C289.99 58.55 290.4 59.99 290.25 61.85L290 65Z" fill="#221212"/>
<path d="M246 237H250C247.92 239.25 247.52 239.25 246.84 238.25L246 237Z" fill="#221212"/>
</g>
<path d="M500 141L502 129L503 126L507 118V117L511 111L520 96L531 80L532.75 77.24C533.71 75.73 534.16 73.93 533 72V70L532.71 68.75C532.19 66.51 519.84 67.05 515.27 69.51C515.14 69.58 515.25 70.39 516 73L514.01 73.25C512.91 73.39 511.56 72.94 510 71L511 56V55L526 56H529.74C531.8 56 535.36 56.78 537.66 57.73C541.63 59.37 542.03 59.37 549 56H555L559 59L560 66L553 73L551 74L547 75L538 85L537 86L534 90L532 92L530 97H529L527.94 98.99C526.91 100.92 527.11 100.96 534.44 100.35C538.63 99.99 542 100.1 542 100.59C542 101.68 539.22 102.84 536.35 102.93C534.11 103 523.69 109.5 523 112L521 115L517 119L515.25 119.25C513.19 119.54 509.39 127.39 507 139V142L506.75 146.01C506.29 153.32 502.77 151.74 500 141Z" fill="#FFBE00"/>
<path d="M424 140L422.25 138.62C418.74 135.84 413.3 127.3 409 115L408 97L406 91L402.96 87.75C401.3 85.96 399.27 83.71 397 81L394 76L392.89 67.25C392.28 62.44 391.83 57.49 392 54L393 48L395 46L400 47V48L400.25 59.35C400.39 65.59 400.84 71.89 402 76L405 81L405.26 82.25C405.4 82.94 406.64 84.63 408.01 86C410.5 88.5 410.5 88.5 414 83L415 82L421 74L427 69L433 62L438 59L447 58L450 60L450.25 63.23C450.44 65.65 450.06 66.52 447 67L443 66L441.8 64.96C440.94 64.21 440.37 64.36 439 67L436.75 68.25C435.52 68.94 433.94 70.51 432 74L428.75 76.75C426.96 78.26 425.39 80.06 425 82L422.75 83.75C420.09 85.82 417.1 91.58 417 97L416 105L417 113L418.25 118.19C418.94 121.05 420.06 124.2 422 127C422.71 128.94 423.61 130.29 424.46 131.25L426 133L431 138V141L424 140Z" fill="#FFBE00"/>
<path d="M339 153L334.75 149.25C330.06 145.11 327.92 142.38 323 133V129L321 125V123L323 114L324 109L325 108L329 98C330.55 96.88 331 95.67 331 94.58C331 93.5 331.45 91.8 332 90.8L333 89L338 77L339 74C339.58 72.06 340.93 69.36 342.37 66.75L345 62L347.76 60.5C349.28 59.68 351.08 59 353 59L354 61L352.75 64.66C352.06 66.68 350.71 68.73 349.75 69.21C348.79 69.7 348 70.75 348 73L345 79L344 82L342 87L335 105L333.25 108.75C330.61 114.41 329.22 125.86 332 132L334 136L334.75 138.75C336.57 145.44 348.29 150.88 361 148L363.09 148.25C370.77 149.17 355.32 154.04 339 153Z" fill="#FFBE00"/>
<path d="M461 141C458.29 138.02 457.61 136.67 457.75 136.07L458 135L456.88 124.25C456.27 118.34 455.82 112.71 456 110L457 105L458 91.9999V88.9999L461 81.9999L462 78.9999L463 74.9999L465 68.9999L466 63.9999L468 57.9999L469.54 56.2499C471.01 54.5799 471.2 54.5899 473.54 56.2999C476.14 58.1899 476.97 63.2799 474.9 64.5599C474.3 64.9399 472.95 67.8899 470 76.9999L469 79.9999L464 97.9999L462 118L463 123V124L465 132L466 135L467.75 138.67C468.71 140.69 469.84 142.49 471 143L475 148L475.92 149.22C477.91 151.85 485.18 151.47 489 146L489.9 144.25C490.5 143.1 491.35 142.76 494 144L493 152L490 155L485 156.25C478.45 157.89 471.64 154.49 461 141Z" fill="#FFBE00"/>
<path d="M510 163V161L503 154L500 148L499 144V141H500C502.77 151.74 506.29 153.32 506.75 146.01L507 142V146L508.26 149.25C510.84 155.9 524.22 158.7 540 154L542.25 155.01C543.76 155.69 545.89 155.69 553 154L552.25 155.68C551.83 156.63 549.66 157.71 543 159L536 162L530 163L523 164H517L515.5 164.62C514.68 164.96 514 164.74 514 164.12C514 163.5 513.1 163 510 163ZM517.82 157.9C515.34 156.58 513.84 158.26 515.9 160.05C516.51 160.57 518.49 160.97 520.3 160.93C522.12 160.89 524.2 160.49 524.94 160.04C525.94 159.42 525.74 159.05 524.14 158.54C522.97 158.17 521.57 158.15 521.03 158.48C520.49 158.82 519.04 158.56 517.82 157.9Z" fill="#FFBE00"/>
<path d="M523 112C523.69 109.5 534.11 103 536.35 102.93C539.22 102.84 542 101.68 542 100.59C542 100.1 538.63 99.99 534.44 100.35C527.11 100.96 526.91 100.92 527.94 98.99L529 97L529.75 98.25C530.31 99.18 532.35 99.31 545 98L550 96L553 95L556.71 95.25C558.75 95.39 560.55 96.06 561 98L558.19 100.75C556.64 102.26 554.84 103.39 553 103L547 105L543.75 105.25C541.96 105.39 539.97 105.85 539.31 106.27C538.66 106.69 536.84 106.94 535.27 106.82C533.67 106.7 530.37 107.78 523 112Z" fill="#FFBE00"/>
<path d="M339 153C355.32 154.04 370.77 149.17 363.09 148.25L361 148V147V146L365 145L375 138L377 136L378.25 136.75C379.05 137.23 379.23 138.31 378 142L372 146L362 154L359 155L351.75 155.25C347.54 155.4 343.35 154.98 339 153Z" fill="#FFBE00"/>
<path d="M508 146V139L509 136C509 149.09 513.98 152.38 527.75 152.75L537 153L536.63 153.59C536.43 153.92 532.63 154.65 528.17 155.22C518.01 156.51 512.63 154.82 508 146Z" fill="#FFBE00"/>
<path d="M334 136L332 132L331 125H333C334.16 130.81 335.51 133.96 336.75 135.75L339 139C344.15 145.44 349.79 147.21 354.21 145.94C355.96 145.44 358.2 145.25 359.19 145.51L361 146V147L357.75 147.56C348.24 149.19 342.15 146.93 334 136Z" fill="#FFBE00"/>
<path d="M540 154V153L547 149L549.75 149.75C551.26 150.16 552.61 151.29 553 154C545.89 155.69 543.76 155.69 542.25 155.01L540 154Z" fill="#FFBE00"/>
<path d="M323 135V133C327.92 142.38 330.06 145.11 334.75 149.25L339 153C343.35 154.98 347.54 155.4 351.75 155.25L359 155C356.46 156.94 353.51 157.09 348.07 156.6C337.91 155.71 333.35 152.55 327.25 142.21L323 135Z" fill="#FFBE00"/>
<path d="M461 141C471.64 154.49 478.45 157.89 485 156.25L490 155C481.99 162.83 468.58 155.81 461.75 142.47L461 141Z" fill="#FFBE00"/>
<path d="M470 77C472.95 67.89 474.3 64.94 474.9 64.56C476.97 63.28 476.14 58.19 473.54 56.3C471.2 54.59 471.01 54.58 469.54 56.25L468 58C468.89 53.3 469.36 52.97 471.24 53.53C477.62 55.44 479.48 60.02 476.08 65.44C475.02 67.12 473.44 70.41 472.58 72.75L471 77H470Z" fill="#FFBE00"/>
<path d="M516 72.9999C515.25 70.3899 515.14 69.5799 515.27 69.5099C519.84 67.0499 532.19 66.5099 532.71 68.7499L533 69.9999L530 68.9999L525 69.9999L520 71.9999L516 72.9999Z" fill="#FFBE00"/>
<path d="M507 146H508C512.63 154.82 518.01 156.51 528.17 155.22C532.63 154.65 536.43 153.92 536.63 153.59L537 153H540V154C524.22 158.7 510.84 155.9 508.26 149.25L507 146Z" fill="#FFBE00"/>
<path d="M408 115H409C413.3 127.3 418.74 135.84 422.25 138.62L424 140H423C418.61 138.82 410.87 125.91 409.25 119.75L408 115Z" fill="#FFBE00"/>
<path d="M521 115L523 112C530.37 107.78 533.67 106.7 535.27 106.82C536.84 106.94 538.66 106.69 539.31 106.27C539.97 105.85 541.96 105.39 543.75 105.25L547 105V106C542.74 106.58 540.83 107 540 107.32C539.18 107.63 536.93 108.08 535 108.32C531.91 108.7 529.81 109.66 522.75 113.94L521 115Z" fill="#FFBE00"/>
<path d="M456 102V105V110C455.82 112.71 456.27 118.34 456.88 124.25L458 135C454.23 121.36 453.92 108.91 455.47 103.75L456 102Z" fill="#FFBE00"/>
<path d="M334 136C342.15 146.93 348.24 149.19 357.75 147.56L361 147V148C348.29 150.88 336.57 145.44 334.75 138.75L334 136Z" fill="#FFBE00"/>
<path d="M400 48C401.16 48.75 401.39 51.9 401.25 55.48L401 62C401.73 69.36 401.96 72.51 401.97 73.75L402 76C400.84 71.89 400.39 65.59 400.25 59.35L400 48Z" fill="#FFBE00"/>
<path d="M335 105L331 125L332 132C329.22 125.86 330.61 114.41 333.25 108.75L335 105Z" fill="#FFBE00"/>
<path d="M392 47V48V54C391.83 57.49 392.28 62.44 392.89 67.25L394 76C391.96 70.37 391.59 64.99 391.75 58.04L392 47Z" fill="#FFBE00"/>
<path d="M507 139C509.39 127.39 513.19 119.54 515.25 119.25L517 119C517 120.55 516.44 120.89 515.75 120.75C515.01 120.6 513.38 123.64 511.75 128.25L509 136L508 139H507Z" fill="#FFBE00"/>
<path d="M432 74C433.94 70.51 435.52 68.94 436.75 68.25L439 67L443 66L447 67V68C442.74 68.47 440.94 68.92 440.25 69.31L439 70C436.29 70.39 435.35 71.11 435.16 71.85C434.97 72.59 434.18 73.37 433.41 73.6L432 74Z" fill="#FFBE00"/>
<path d="M509 56L508.75 59.35C508.61 61.2 508.83 63.06 509.23 63.5C509.63 63.93 509.74 65.8 509 71C506.63 71 506.34 59.73 507.75 57.75L509 56Z" fill="#FFBE00"/>
<path d="M517.82 157.9C519.04 158.56 520.49 158.82 521.03 158.48C521.57 158.15 522.97 158.17 524.14 158.54C525.74 159.05 525.94 159.42 524.94 160.04C524.2 160.49 522.12 160.89 520.3 160.93C518.49 160.97 516.51 160.57 515.9 160.05C513.84 158.26 515.34 156.58 517.82 157.9Z" fill="#FFBE00"/>
<path d="M509 71C509.74 65.8 509.63 63.93 509.23 63.5C508.83 63.06 508.61 61.2 508.75 59.35L509 56H511L510 71H509Z" fill="#FFBE00"/>
<path d="M550 105L553 103C554.84 103.39 556.64 102.26 558.19 100.75L561 98H562C558.42 103.65 551.35 107.18 550.45 105.72L550 105Z" fill="#FFBE00"/>
<path d="M464 98L469 80V82L465 98H464Z" fill="#FFBE00"/>
<path d="M348 73C348 70.75 348.79 69.7 349.75 69.21C350.71 68.73 352.06 66.68 352.75 64.66L354 61H355C356.55 63.15 352.93 70 351.42 70C350.8 70 349.78 70.68 349.15 71.5L348 73Z" fill="#FFBE00"/>
<path d="M417 97C417.1 91.58 420.09 85.82 422.75 83.75L425 82C423.06 84.34 421.49 87.71 420.25 91.01L418 97H417Z" fill="#FFBE00"/>
<path d="M475 148C482.09 150.37 482.76 150.27 485.72 148.24L489 146C485.18 151.47 477.91 151.85 475.92 149.22L475 148Z" fill="#FFBE00"/>
<path d="M447 68V67C450.06 66.52 450.44 65.65 450.25 63.23L450 60C454.61 63.28 452.33 69.21 448.69 68.38L447 68Z" fill="#FFBE00"/>
<path d="M463 113V108L464 98H465L463 113Z" fill="#FFBE00"/>
<path d="M408 115V97L409 115H408Z" fill="#FFBE00"/>
<path d="M405 81C409.91 85.88 410.26 85.96 412.05 84.54L414 83C410.5 88.5 410.5 88.5 408.01 86C406.64 84.63 405.4 82.94 405.26 82.25L405 81Z" fill="#FFBE00"/>
<path d="M511 55L513 53L526 56L511 55Z" fill="#FFBE00"/>
<path d="M362 154L372 146C371.53 147.16 369.28 148.96 366.7 150.75L362 154Z" fill="#FFBE00"/>
<path d="M331 125L333 115V125H331Z" fill="#FFBE00"/>
<path d="M456 105V102L458 92L457 105H456Z" fill="#FFBE00"/>
<path d="M423 140H424L431 141C431 143.43 426.71 142.88 424.61 141.25L423 140Z" fill="#FFBE00"/>
<path d="M499 141V137L502 129L500 141H499Z" fill="#FFBE00"/>
<path d="M425 82C425.39 80.06 426.96 78.26 428.75 76.75L432 74L425 82Z" fill="#FFBE00"/>
<path d="M508 161L503 154L510 161H508Z" fill="#FFBE00"/>
<path d="M378 142C379.23 138.31 379.05 137.23 378.25 136.75L377 136C377 134.56 377.68 134.33 378.5 134.57L380 135L381 136L379 142H378Z" fill="#FFBE00"/>
<path d="M560 66L559 59L558 57L561 58V66H560Z" fill="#FFBE00"/>
<path d="M493 152L494 144C495.16 144.8 495.39 145.93 495.25 147.02L495 149L493 152Z" fill="#FFBE00"/>
<path d="M466 135L471 143C469.84 142.49 468.71 140.69 467.75 138.67L466 135Z" fill="#FFBE00"/>
<path d="M427 69C427.39 67.06 428.74 65.49 430.25 64.25L433 62L427 69Z" fill="#FFBE00"/>
<path d="M345 62C347.2 59.29 349 58.39 350.42 58.25L353 58V59C351.08 59 349.28 59.68 347.76 60.5L345 62Z" fill="#FFBE00"/>
<path d="M549 56.0001C549.68 53.7501 550.38 53.7501 552.88 54.7501L556 56.0001H555H549Z" fill="#FFBE00"/>
<path d="M555 71L560 66H561C560.61 67.94 559.26 69.06 557.75 69.75L555 71Z" fill="#FFBE00"/>
<path d="M438 59L442 57L447 58L438 59Z" fill="#FFBE00"/>
<path d="M463 124H464L465 130V132L463 124Z" fill="#FFBE00"/>
<path d="M462 118L463 108V113V116V118H462Z" fill="#FFBE00"/>
<path d="M416 105L417 97H418L417 105H416Z" fill="#FFBE00"/>
<path d="M531 80L533 72C534.16 73.93 533.71 75.73 532.75 77.24L531 80Z" fill="#FFBE00"/>
<path d="M426 133L431 136V138L426 133Z" fill="#FFBE00"/>
<path d="M431 141V138V136C433.25 139.15 433.25 139.65 432.25 140.25L431 141Z" fill="#FFBE00"/>
<path d="M463 124V123V118V116L464 124H463Z" fill="#FFBE00"/>
<path d="M416 105H417V109V113L416 105Z" fill="#FFBE00"/>
<path d="M547 106V105L553 103L550 105L547 106Z" fill="#FFBE00"/>
<path d="M463 75V73L464 69H465L463 75Z" fill="#FFBE00"/>
<path d="M507 146V142V139H508V146H507Z" fill="#FFBE00"/>
<path d="M439 67.0001C440.37 64.3601 440.94 64.2101 441.8 64.9601L443 66.0001L439 67.0001Z" fill="#FFBE00"/>
<path d="M395 46V45L400 47L395 46Z" fill="#FFBE00"/>
<path d="M392 48V47L395 45V46L393 48H392Z" fill="#FFBE00"/>
<path d="M322 129H323V133V135L322 129Z" fill="#FFBE00"/>
<path d="M469 82V80L470 77H471L469 82Z" fill="#FFBE00"/>
<path d="M462 79L463 73V75L462 79Z" fill="#FFBE00"/>
<path d="M464 69L466 64L465 69H464Z" fill="#FFBE00"/>
<path d="M555 56H556L558 57L559 59L555 56Z" fill="#FFBE00"/>
<path d="M392 54V48H393L392 54Z" fill="#FFBE00"/>
<path d="M321 125L323 129H322L321 125Z" fill="#FFBE00"/>
<path d="M462 118H463V123L462 118Z" fill="#FFBE00"/>
<path d="M456 110V105H457L456 110Z" fill="#FFBE00"/>
<path d="M353 59V58L355 61H354L353 59Z" fill="#FFBE00"/>
<path d="M465.252 261L468.052 249.75C469.592 243.56 471.392 236.81 473.252 231L474.252 229L477.252 225V223L479.252 217V216L480.252 215L484.252 208L486.252 204L494.252 190L500.252 183H503.252H507.252L508.252 185V187.42C508.252 189.29 507.472 190.1 504.852 190.97C502.992 191.58 501.192 192.74 500.252 195V196L490.252 211L488.252 216L485.072 222.25C483.332 225.69 481.982 229.06 482.252 231L481.002 232.92C480.312 233.98 480.092 235.11 481.252 236L483.002 237.68C485.732 240.29 485.642 240.53 480.402 244.3C476.502 247.1 475.332 248.6 474.252 255L475.252 257V264V266H474.252H468.252L465.252 261Z" fill="#76382D"/>
<path d="M525.252 274L518.252 271L515.252 272H514.252L517.252 265L519.252 266L521.732 267.25C523.092 267.94 524.442 268.16 525.252 267L526.252 264L527.252 232L528.252 228L530.252 218L534.252 203L536.252 195C538.422 186.86 539.032 184.05 539.012 183.5C538.992 182.95 540.612 181.26 542.612 179.75L546.252 177L548.502 177.26C553.202 177.8 554.592 178.49 554.002 180C553.672 180.82 553.372 181.16 553.332 180.75C553.292 180.33 552.132 180.67 548.252 183L545.252 186L540.252 197L539.252 200L536.252 213V214L533.252 232L532.122 240.75C531.282 247.25 531.282 251.11 533.252 262L531.482 261.42C529.782 260.85 527.252 265.31 527.252 268.87C527.252 270.82 534.102 273.21 541.252 272L539.252 273L534.752 274.84C531.482 275.5 530.292 275.31 528.502 274.84L525.252 274Z" fill="#76382D"/>
<path d="M377.253 255L376.253 254V252L376.353 250.75C376.413 250.06 375.933 246.99 375.283 243.93C374.023 237.93 374.583 229.93 378.253 216L380.253 211L387.253 197L391.253 190L393.253 187L399.253 181L402.183 180.75C405.963 180.43 408.993 183.15 406.253 187L405.253 188L401.253 190L399.253 192L394.253 200L391.503 203.75C389.993 205.81 387.513 210.76 383.253 222L382.253 225L380.253 233L379.253 239L378.553 242.94C378.073 245.62 378.303 247.72 379.273 249.53C380.543 251.9 380.503 252.34 377.253 255Z" fill="#76382D"/>
<path d="M559.252 244V243L561.252 235L561.972 228.1C562.362 224.3 563.092 219.99 563.582 218.51C564.172 216.73 564.102 215.45 563.362 214.71C562.752 214.1 562.252 212.12 562.252 207L560.252 199C558.472 193.19 557.992 191.27 558.022 190.99C558.232 189.42 553.352 184.39 551.002 183.75L548.252 183C552.132 180.67 553.292 180.33 553.332 180.75C553.372 181.16 553.672 180.82 554.002 180C554.592 178.49 553.202 177.8 548.502 177.26L546.252 177C555.212 174.09 562.142 181.46 565.502 193.3L568.252 203V219V220L569.252 228C567.732 231.75 567.802 232.72 568.552 233.19C569.362 233.69 569.202 235.17 567.972 238.44L566.252 243V240.33C566.252 235.77 565.132 235.81 559.252 244Z" fill="#76382D"/>
<path d="M446.252 229L447.252 217L451.252 203L452.252 200L454.252 192L455.502 191.25C459.682 188.74 464.252 190.51 464.252 197L464.002 199.21C463.862 200.43 462.742 202.45 459.252 206L456.502 214.25C454.992 218.79 453.642 223.51 453.252 227L452.252 230L450.252 238L449.552 243.75C448.792 250.03 448.582 250.66 447.582 249.67C447.222 249.3 447.252 249 447.652 249C448.062 249 447.622 248.22 446.672 247.27C445.192 245.8 445.042 244.34 446.252 229Z" fill="#76382D"/>
<path d="M509.252 268V267L509.502 234.25C509.792 196.43 508.932 191.06 500.252 195C501.192 192.74 502.992 191.58 504.852 190.97C507.472 190.1 508.252 189.29 508.252 187.42V185H509.252L512.002 192.25C514.752 199.5 514.752 199.5 515.252 263L513.002 264.66C511.762 265.58 510.412 266.7 509.252 268ZM514.072 241.29C513.622 237.17 511.252 238.26 511.252 242.58C511.252 244.46 511.572 246 511.952 246C512.342 246 513.042 245.61 513.522 245.13C514.002 244.65 514.252 242.92 514.072 241.29ZM511.252 209V212H514.252V209H511.252Z" fill="#76382D"/>
<path d="M388.252 270H387.252L380.252 258L384.252 255L385.142 256.75C387.222 260.83 396.422 265.24 406.252 264L412.252 263L415.002 262.19C416.512 261.75 418.722 261.06 419.922 260.65C421.542 260.1 422.352 260.43 424.252 264L423.252 266L416.252 270L403.002 270.2C395.712 270.31 389.412 270.31 388.252 270Z" fill="#76382D"/>
<path d="M533.252 262L534.252 264L534.702 264.75C535.602 266.23 541.082 266.1 544.252 263L555.252 253L556.752 252.38C557.862 251.92 558.252 252.44 558.252 257L557.252 258L554.502 259.75C552.992 260.71 551.412 262.29 550.252 265V266L549.252 267L543.252 271L541.252 272C534.102 273.21 527.252 270.82 527.252 268.87C527.252 265.31 529.782 260.85 531.482 261.42L533.252 262Z" fill="#76382D"/>
<path d="M449.252 180L447.252 177L446.252 173V171H447.252L451.252 168L455.252 166L462.252 165L463.782 165.75C464.632 166.16 465.302 167.29 465.252 170H464.252L456.252 175L450.252 180H449.252Z" fill="#76382D"/>
<path d="M378.252 211C378.262 207.47 384.672 195.42 390.212 186.75L393.252 182L397.002 179.36C403.132 175.05 410.112 175.93 409.252 183L406.752 180.25C404.312 177.56 404.202 177.54 399.252 181L393.252 187L391.252 190L387.252 197L385.252 201L380.252 210L378.252 211Z" fill="#76382D"/>
<path d="M382.252 228V225L383.252 222L387.882 212.75C390.432 207.66 392.912 202.71 394.252 200L399.252 192L401.252 190L403.252 189.76C404.352 189.63 405.252 189.18 405.252 188L406.252 187L409.252 185L410.252 187C396.272 201.58 393.422 205.57 390.092 212.41C387.702 217.31 384.962 222.82 384.002 224.66L382.252 228Z" fill="#76382D"/>
<path d="M505.253 277L509.253 268C510.413 266.7 511.763 265.58 513.003 264.66L515.253 263H516.253L517.253 265L514.253 272L509.253 280L507.353 280.87C504.893 281.99 503.543 280.98 505.253 277Z" fill="#76382D"/>
<path d="M474.252 255C475.332 248.6 476.502 247.1 480.402 244.3C485.642 240.53 485.732 240.29 483.002 237.68L481.252 236L491.252 241L493.002 242C493.962 242.55 494.642 243.9 494.252 247H488.252C480.872 245.76 477.672 247.59 475.752 251.75L474.252 255Z" fill="#76382D"/>
<path d="M509.252 267L508.252 249L509.252 220C507.862 198.63 506.652 195.42 503.002 195.75L500.252 196V195C508.932 191.06 509.792 196.43 509.502 234.25L509.252 267Z" fill="#76382D"/>
<path d="M558.252 257C558.252 252.44 557.862 251.92 556.752 252.38L555.252 253L557.252 249L559.252 244C565.132 235.81 566.252 235.77 566.252 240.33V243L565.252 244L561.252 254L559.252 257H558.252Z" fill="#76382D"/>
<path d="M443.252 251V238L445.252 229H446.252C445.042 244.34 445.192 245.8 446.672 247.27C447.622 248.22 448.062 249 447.652 249C447.252 249 447.222 249.3 447.582 249.67C448.582 250.66 448.792 250.03 449.552 243.75L450.252 238L451.252 246V249L450.962 250.95C450.802 252.02 450.132 253.37 448.252 255L446.652 254.75C445.772 254.61 444.642 253.71 443.252 251Z" fill="#76382D"/>
<path d="M378.252 211L380.252 210V211L378.252 216L376.012 220.75C373.012 227.13 372.082 246.89 376.252 252V254C370.242 246.38 371.012 229.91 376.002 216.87L378.252 211Z" fill="#76382D"/>
<path d="M496.252 247H494.252C494.642 243.9 493.962 242.55 493.002 242L491.252 241C500.162 242.04 503.202 242.38 503.752 242.42C504.972 242.52 505.582 244.52 504.812 245.95L504.252 247H496.252Z" fill="#76382D"/>
<path d="M534.252 264L533.502 257.25C533.092 253.54 532.862 249.04 533.252 244C535.802 261.12 536.922 263 541.092 263H544.252C541.082 266.1 535.602 266.23 534.702 264.75L534.252 264Z" fill="#76382D"/>
<path d="M378.252 216C374.582 229.93 374.022 237.93 375.282 243.93C375.932 246.99 376.412 250.06 376.352 250.75L376.252 252C372.082 246.89 373.012 227.13 376.012 220.75L378.252 216Z" fill="#76382D"/>
<path d="M388.252 271V270C389.412 270.31 395.712 270.31 403.002 270.2L416.252 270C416.252 271.29 415.692 271.72 415.002 271.79C414.312 271.86 412.292 272.16 410.502 272.46L407.252 273H395.252C394.092 273.2 392.512 272.75 391.002 272.13L388.252 271Z" fill="#76382D"/>
<path d="M410.252 187L409.252 185V183C410.112 175.93 403.132 175.05 397.002 179.36L393.252 182C405.002 170.89 414.812 174.88 411.502 183.68L410.252 187Z" fill="#76382D"/>
<path d="M377.252 256V255C380.502 252.34 380.542 251.9 379.272 249.53C378.302 247.72 378.072 245.62 378.552 242.94L379.252 239L380.252 244L381.252 248L384.252 255L380.252 258L377.252 256Z" fill="#76382D"/>
<path d="M384.252 255L381.252 248L384.712 253.25C386.612 256.14 388.632 258.61 390.252 259C395.292 262.49 398.442 263.61 400.502 263.75L404.252 264H406.252C396.422 265.24 387.222 260.83 385.142 256.75L384.252 255Z" fill="#76382D"/>
<path d="M526.252 264L525.252 239L526.252 232H527.252L526.252 264Z" fill="#76382D"/>
<path d="M381.252 248L380.252 244V243C381.412 242.24 383.122 245.05 384.802 248.76C386.472 252.47 388.392 256.29 389.052 257.25L390.252 259C388.632 258.61 386.612 256.14 384.712 253.25L381.252 248Z" fill="#76382D"/>
<path d="M464.252 261C467.082 246.66 469.102 239.91 470.572 236.75L473.252 231C471.392 236.81 469.592 243.56 468.052 249.75L465.252 261H464.252Z" fill="#76382D"/>
<path d="M561.252 235V221C561.642 218.29 561.412 215.36 561.002 212.75L560.252 208C560.252 206.4 560.702 206.17 561.252 206.46L562.252 207C562.252 212.12 562.752 214.1 563.362 214.71C564.102 215.45 564.172 216.73 563.582 218.51C563.092 219.99 562.362 224.3 561.972 228.1L561.252 235Z" fill="#76382D"/>
<path d="M502.252 285L499.252 284L501.252 280L505.252 277C503.542 280.98 504.892 281.99 507.352 280.87L509.252 280L506.252 284L502.252 285Z" fill="#76382D"/>
<path d="M533.252 262C531.282 251.11 531.282 247.25 532.122 240.75L533.252 232V244C532.862 249.04 533.092 253.54 533.502 257.25L534.252 264L533.252 262Z" fill="#76382D"/>
<path d="M383.252 222C387.512 210.76 389.992 205.81 391.502 203.75L394.252 200C392.912 202.71 390.432 207.66 387.882 212.75L383.252 222Z" fill="#76382D"/>
<path d="M385.252 269C383.762 265.74 381.752 264.5 381.752 264.5C380.752 263 379.602 260.83 378.772 259.11L377.252 256L380.252 258L387.252 270L385.252 269Z" fill="#76382D"/>
<path d="M412.252 263L413.252 262C423.702 257.74 424.732 258.02 425.052 261.75L425.252 264H424.252C422.352 260.43 421.542 260.1 419.922 260.65C418.722 261.06 416.512 261.75 415.002 262.19L412.252 263Z" fill="#76382D"/>
<path d="M453.252 227C453.642 223.51 454.992 218.79 456.502 214.25L459.252 206L453.252 227Z" fill="#76382D"/>
<path d="M406.252 187C408.992 183.15 405.962 180.43 402.182 180.75L399.252 181C404.202 177.54 404.312 177.56 406.752 180.25L409.252 183V185L406.252 187Z" fill="#76382D"/>
<path d="M550.252 265C551.412 262.29 552.992 260.71 554.502 259.75L557.252 258V260L556.252 262L550.252 265Z" fill="#76382D"/>
<path d="M506.252 284L509.252 280L514.252 272H515.252C514.002 277.32 512.362 279.5 509.982 281.25L506.252 284Z" fill="#76382D"/>
<path d="M514.072 241.29C514.252 242.92 514.002 244.65 513.522 245.13C513.042 245.61 512.342 246 511.952 246C511.572 246 511.252 244.46 511.252 242.58C511.252 238.26 513.622 237.17 514.072 241.29Z" fill="#76382D"/>
<path d="M501.252 280C503.932 275.74 505.732 272.81 506.982 270.75L509.252 267V268L505.252 277L501.252 280Z" fill="#76382D"/>
<path d="M482.252 231C481.982 229.06 483.332 225.69 485.072 222.25L488.252 216L485.252 225L482.252 231Z" fill="#76382D"/>
<path d="M451.252 246L450.252 238L452.252 230L451.252 246Z" fill="#76382D"/>
<path d="M447.252 217L446.252 215C447.372 214.31 447.822 212.96 447.972 211.56L448.252 209L451.252 203L447.252 217Z" fill="#76382D"/>
<path d="M530.252 218L533.252 203H534.252L530.252 218Z" fill="#76382D"/>
<path d="M536.252 213L539.252 200C538.812 207.16 538.132 210.08 537.472 211.12L536.252 213Z" fill="#76382D"/>
<path d="M443.253 251V249C441.943 245.42 441.943 242.95 442.413 241.19L443.253 238V251Z" fill="#76382D"/>
<path d="M445.252 229L444.252 224L447.252 217L446.252 229H445.252Z" fill="#76382D"/>
<path d="M444.252 224C444.022 222.06 444.472 220.04 445.102 218.25L446.252 215L447.252 217L444.252 224Z" fill="#76382D"/>
<path d="M380.252 211V210L385.252 201L380.252 211Z" fill="#76382D"/>
<path d="M569.252 228L568.252 220C569.412 220.81 569.642 222.61 569.502 224.52L569.252 228Z" fill="#76382D"/>
<path d="M527.252 228L530.252 218L528.252 228H527.252Z" fill="#76382D"/>
<path d="M464.253 261H465.253L468.253 266V267C464.533 265.71 463.893 264.75 464.043 263.23L464.253 261Z" fill="#76382D"/>
<path d="M380.252 236V233L382.252 225V228L380.252 236Z" fill="#76382D"/>
<path d="M533.252 203L536.252 195L534.252 203H533.252Z" fill="#76382D"/>
<path d="M416.252 270L423.252 266V267L416.252 270Z" fill="#76382D"/>
<path d="M404.252 264L413.252 262L412.252 263L406.252 264H404.252Z" fill="#76382D"/>
<path d="M379.252 239L380.252 233V236V243V244L379.252 239Z" fill="#76382D"/>
<path d="M443.252 238C443.022 236.06 443.472 234.04 444.102 232.25L445.252 229L443.252 238Z" fill="#76382D"/>
<path d="M468.252 267V266H474.252V268L468.252 267Z" fill="#76382D"/>
<path d="M550.252 266V265L556.252 262L550.252 266Z" fill="#76382D"/>
<path d="M511.252 209H514.252V212H511.252V209Z" fill="#76382D"/>
<path d="M533.252 232L534.252 226C534.642 228.95 534.412 230.3 534.002 230.91L533.252 232Z" fill="#76382D"/>
<path d="M519.252 266L525.252 267C524.442 268.16 523.092 267.94 521.732 267.25L519.252 266Z" fill="#76382D"/>
<path d="M557.252 249L559.252 243V244L557.252 249Z" fill="#76382D"/>
<path d="M500.252 183C502.042 181.84 503.392 181.61 504.402 181.75L506.252 182L503.252 183H500.252Z" fill="#76382D"/>
<path d="M560.252 199L561.252 203C560.092 202.2 559.862 201.3 560.002 200.49L560.252 199Z" fill="#76382D"/>
<path d="M401.252 190L405.252 188C405.252 189.18 404.352 189.63 403.252 189.76L401.252 190Z" fill="#76382D"/>
<path d="M385.252 269L387.252 270H388.252V271L385.252 269Z" fill="#76382D"/>
<path d="M423.252 267V266L424.252 264H425.252C425.642 265.8 425.192 266.48 424.502 266.66L423.252 267Z" fill="#76382D"/>
<path d="M526.252 232L527.252 228H528.252L527.252 232H526.252Z" fill="#76382D"/>
<path d="M557.252 260V258L558.252 257H559.252L557.252 260Z" fill="#76382D"/>
<path d="M503.252 183L506.252 182L507.252 183H503.252Z" fill="#76382D"/>
<defs>
<clipPath id="clip0_464_1790">
<rect width="360" height="310" fill="white" transform="translate(0 9)"/>
</clipPath>
</defs>
</svg>
